<?xml version="1.0" encoding="UTF-8"?>
<!DOCTYPE svg PUBLIC "-//W3C//DTD SVG 1.1//EN" "http://www.w3.org/Graphics/SVG/1.1/DTD/svg11.dtd">
<!-- Creator: CorelDRAW 2020 (64-Bit Оценочная версия) -->
<svg xmlns="http://www.w3.org/2000/svg" xml:space="preserve" width="400px" height="400px" version="1.1" style="shape-rendering:geometricPrecision; text-rendering:geometricPrecision; image-rendering:optimizeQuality; fill-rule:evenodd; clip-rule:evenodd"
viewBox="0 0 400 400"
 xmlns:xlink="http://www.w3.org/1999/xlink"
 xmlns:xodm="http://www.corel.com/coreldraw/odm/2003">
 <defs>
  <style type="text/css">
   <![CDATA[
    .str0 {stroke:#2B2A29;stroke-width:2.36;stroke-miterlimit:22.9256}
    .str1 {stroke:#2B2A29;stroke-width:5;stroke-linecap:round;stroke-linejoin:round;stroke-miterlimit:22.9256}
    .fil1 {fill:none}
    .fil2 {fill:#2B2A29}
    .fil0 {fill:url(#id0)}
   ]]>
  </style>
  <linearGradient id="id0" gradientUnits="userSpaceOnUse" x1="110.89" y1="60.48" x2="325.56" y2="368.12">
   <stop offset="0" style="stop-opacity:1; stop-color:#D7B56D"/>
   <stop offset="0.160784" style="stop-opacity:1; stop-color:#FEFEFE"/>
   <stop offset="0.878431" style="stop-opacity:1; stop-color:#D7B56E"/>
   <stop offset="1" style="stop-opacity:1; stop-color:#FEFEFE"/>
  </linearGradient>
 </defs>
 <g id="Слой_x0020_1">
  <metadata id="CorelCorpID_0Corel-Layer"/>
  <path class="fil0 str0" d="M281.5 44.14c65.45,0 118.5,53.01 118.5,118.41 0,92.82 -115.12,184.18 -187.27,224.75 -8.13,4.58 -17.33,4.58 -25.46,0 -72.15,-40.57 -187.27,-131.93 -187.27,-224.75 0,-65.4 53.05,-118.41 118.5,-118.41 3.22,0 6.41,0.13 9.56,0.38 9.22,0.74 17.5,-3.04 22.98,-10.48 11.06,-15.02 28.87,-24.77 48.96,-24.77 20.09,0 37.9,9.75 48.96,24.77 5.48,7.44 13.76,11.22 22.98,10.48 3.15,-0.25 6.34,-0.38 9.56,-0.38zm-81.5 -3.48c16.19,0 29.32,13.12 29.32,29.3 0,16.18 -13.13,29.3 -29.32,29.3 -16.19,0 -29.32,-13.12 -29.32,-29.3 0,-16.18 13.13,-29.3 29.32,-29.3z"/>
  <path class="fil1 str1" d="M240.82 69.01c9.19,-2.73 18.92,-4.2 28.99,-4.2 56.06,0 101.51,45.41 101.51,101.42 0,84.38 -111.05,167.35 -171.32,198.41 -60.27,-31.06 -171.32,-114.03 -171.32,-198.41 0,-56.01 45.45,-101.42 101.51,-101.42 9.65,0 18.98,1.35 27.82,3.86"/>
  <path class="fil2" d="M215.72 261.23c12.63,0 22.87,10.23 22.87,22.84 0,2.93 -0.55,5.72 -1.56,8.29l0 0 0 0.02c-0.48,1.22 -1.07,2.4 -1.74,3.51 -8.21,15.58 -20.62,25.3 -35.29,32.87 -14.67,-7.57 -27.08,-17.29 -35.29,-32.87 -0.67,-1.11 -1.26,-2.29 -1.74,-3.51l0 -0.02 0 0c-1.01,-2.57 -1.56,-5.36 -1.56,-8.29 0,-12.61 10.24,-22.84 22.87,-22.84 6.09,0 11.62,2.38 15.72,6.26 4.1,-3.88 9.63,-6.26 15.72,-6.26z"/>
 </g>
</svg>
