<?xml version="1.0" encoding="UTF-8"?>
<!DOCTYPE svg PUBLIC "-//W3C//DTD SVG 1.1//EN" "http://www.w3.org/Graphics/SVG/1.1/DTD/svg11.dtd">
<!-- Creator: CorelDRAW 2020 (64-Bit Оценочная версия) -->
<svg xmlns="http://www.w3.org/2000/svg" xml:space="preserve" width="400px" height="400px" version="1.1" style="shape-rendering:geometricPrecision; text-rendering:geometricPrecision; image-rendering:optimizeQuality; fill-rule:evenodd; clip-rule:evenodd"
viewBox="0 0 400 400"
 xmlns:xlink="http://www.w3.org/1999/xlink"
 xmlns:xodm="http://www.corel.com/coreldraw/odm/2003">
 <defs>
  <style type="text/css">
   <![CDATA[
    .str1 {stroke:#2B2A29;stroke-width:5;stroke-miterlimit:22.9256}
    .str0 {stroke:#2B2A29;stroke-width:2.36;stroke-miterlimit:22.9256}
    .fil1 {fill:none}
    .fil0 {fill:url(#id0)}
   ]]>
  </style>
  <linearGradient id="id0" gradientUnits="userSpaceOnUse" x1="131.05" y1="82.86" x2="305.4" y2="332.57">
   <stop offset="0" style="stop-opacity:1; stop-color:#D7B56D"/>
   <stop offset="0.160784" style="stop-opacity:1; stop-color:#FEFEFE"/>
   <stop offset="0.878431" style="stop-opacity:1; stop-color:#D7B56E"/>
   <stop offset="1" style="stop-opacity:1; stop-color:#FEFEFE"/>
  </linearGradient>
 </defs>
 <g id="Слой_x0020_1">
  <metadata id="CorelCorpID_0Corel-Layer"/>
  <path class="fil0 str0" d="M105.19 131.45l65.03 0c4.44,-12.13 16.1,-20.78 29.78,-20.78 13.68,0 25.34,8.65 29.78,20.78l65.03 0c7.31,-20.02 27.44,-34.4 51.13,-34.4 29.85,0 54.06,22.85 54.06,51.02 0,18.87 -10.86,35.36 -27.01,44.18l0 15.5c16.15,8.82 27.01,25.3 27.01,44.18 0,28.17 -24.21,51.02 -54.06,51.02 -23.69,0 -43.82,-14.38 -51.13,-34.4l-189.62 0c-7.31,20.02 -27.44,34.4 -51.13,34.4 -29.85,0 -54.06,-22.85 -54.06,-51.02 0,-18.88 10.86,-35.36 27.01,-44.18l0 -15.5c-16.15,-8.82 -27.01,-25.31 -27.01,-44.18 0,-28.17 24.21,-51.02 54.06,-51.02 23.69,0 43.82,14.38 51.13,34.4zm94.81 -3.41c7.91,0 14.32,6.4 14.32,14.3 0,7.9 -6.41,14.3 -14.32,14.3 -7.91,0 -14.32,-6.4 -14.32,-14.3 0,-7.9 6.41,-14.3 14.32,-14.3z"/>
  <path class="fil1 str1" d="M170.11 147.42l-76.12 0 -3.83 -10.5c-5.44,-14.9 -20.51,-23.89 -36.1,-23.89 -19.73,0 -38.06,14.58 -38.06,35.04 0,12.87 7.54,24.07 18.69,30.16l8.32 4.55 0 34.44 -8.32 4.55c-11.15,6.09 -18.69,17.29 -18.69,30.16 0,20.46 18.33,35.04 38.06,35.04 15.59,0 30.66,-9 36.1,-23.89l3.83 -10.5 212.02 0 3.83 10.5c5.44,14.89 20.51,23.89 36.1,23.89 19.73,0 38.06,-14.58 38.06,-35.04 0,-12.87 -7.54,-24.07 -18.69,-30.16l-8.32 -4.55 0 -34.44 8.32 -4.55c11.15,-6.09 18.69,-17.29 18.69,-30.16 0,-20.46 -18.33,-35.04 -38.06,-35.04 -15.59,0 -30.66,8.99 -36.1,23.89l-3.83 10.5 -76.12 0"/>
 </g>
</svg>
