<?xml version="1.0" encoding="UTF-8"?>
<!DOCTYPE svg PUBLIC "-//W3C//DTD SVG 1.1//EN" "http://www.w3.org/Graphics/SVG/1.1/DTD/svg11.dtd">
<!-- Creator: CorelDRAW 2020 (64-Bit Оценочная версия) -->
<svg xmlns="http://www.w3.org/2000/svg" xml:space="preserve" width="400px" height="400px" version="1.1" style="shape-rendering:geometricPrecision; text-rendering:geometricPrecision; image-rendering:optimizeQuality; fill-rule:evenodd; clip-rule:evenodd"
viewBox="0 0 400 400"
 xmlns:xlink="http://www.w3.org/1999/xlink"
 xmlns:xodm="http://www.corel.com/coreldraw/odm/2003">
 <defs>
  <style type="text/css">
   <![CDATA[
    .str1 {stroke:#2B2A29;stroke-width:5;stroke-miterlimit:22.9256}
    .str0 {stroke:#2B2A29;stroke-width:0.9;stroke-miterlimit:22.9256}
    .fil1 {fill:none}
    .fil2 {fill:#2B2A29}
    .fil0 {fill:url(#id0)}
   ]]>
  </style>
  <linearGradient id="id0" gradientUnits="userSpaceOnUse" x1="110.98" y1="61.18" x2="325.47" y2="368.81">
   <stop offset="0" style="stop-opacity:1; stop-color:#D7B56D"/>
   <stop offset="0.160784" style="stop-opacity:1; stop-color:#FEFEFE"/>
   <stop offset="0.878431" style="stop-opacity:1; stop-color:#D7B56E"/>
   <stop offset="1" style="stop-opacity:1; stop-color:#FEFEFE"/>
  </linearGradient>
 </defs>
 <g id="Слой_x0020_1">
  <metadata id="CorelCorpID_0Corel-Layer"/>
  <path class="fil0 str0" d="M200 0c110.46,0 200,89.54 200,200 0,110.46 -89.54,200 -200,200 -110.46,0 -200,-89.54 -200,-200 0,-110.46 89.54,-200 200,-200zm0 13.63l0 0c9.78,0 17.78,8 17.78,17.78l0 21.28c0,9.78 -8,17.78 -17.78,17.78l0 0c-9.78,0 -17.78,-8 -17.78,-17.78l0 -21.28c0,-9.78 8,-17.78 17.78,-17.78z"/>
  <path class="fil1 str1" d="M230.5 16.76c87.38,14.54 154,90.47 154,181.98 0,101.89 -82.6,184.5 -184.5,184.5 -101.9,0 -184.5,-82.61 -184.5,-184.5 0,-91.51 66.62,-167.44 154,-181.98 -2.24,4.53 -3.5,9.61 -3.5,14.98l0 19c0,18.7 15.3,34 34,34l0 0c18.7,0 34,-15.3 34,-34l0 -19c0,-5.37 -1.26,-10.45 -3.5,-14.98z"/>
  <path class="fil2" d="M200.44 318.21c19.02,-0.02 68.67,11.75 34.68,-41.43 -5.41,-8.47 -7.98,-15.09 -15.95,-22.08 -30.11,-26.37 -71.65,29.99 -65.59,50.74 6.09,20.88 28.95,12.8 46.86,12.77zm-40.05 -60.35c5.91,-33.85 -43.66,-48.75 -37.4,-13.91 4.24,23.63 31.57,31.96 36.44,17.14 0.39,-1.18 0.75,-2.04 0.96,-3.23zm100.47 -34.37c-17.6,5.61 -31.25,35.51 -15.28,44.01 20.29,10.8 45.15,-32.4 24.16,-42.84 -2.31,-1.15 -5.98,-2.1 -8.88,-1.17zm-103.06 -20.53c-0.03,14.92 19.28,49.43 30.33,29.94 13.9,-24.51 -4.14,-68.08 -26.06,-41.58 -2.45,2.96 -4.26,7.51 -4.27,11.64zm48.02 13.08c0.21,56.76 65.61,-14.96 22.63,-34.88 -15.39,-7.13 -22.68,21.67 -22.63,34.88z"/>
 </g>
</svg>
