<?xml version="1.0" encoding="UTF-8"?>
<!DOCTYPE svg PUBLIC "-//W3C//DTD SVG 1.1//EN" "http://www.w3.org/Graphics/SVG/1.1/DTD/svg11.dtd">
<!-- Creator: CorelDRAW 2020 (64-Bit Оценочная версия) -->
<svg xmlns="http://www.w3.org/2000/svg" xml:space="preserve" width="210mm" height="297mm" version="1.1" style="shape-rendering:geometricPrecision; text-rendering:geometricPrecision; image-rendering:optimizeQuality; fill-rule:evenodd; clip-rule:evenodd"
viewBox="0 0 21000 29700"
 xmlns:xlink="http://www.w3.org/1999/xlink"
 xmlns:xodm="http://www.corel.com/coreldraw/odm/2003">
 <defs>
  <style type="text/css">
   <![CDATA[
    .str0 {stroke:#2B2A29;stroke-width:7.62;stroke-miterlimit:22.9256}
    .fil0 {fill:#FEFEFE}
   ]]>
  </style>
 </defs>
 <g id="Слой_x0020_1">
  <metadata id="CorelCorpID_0Corel-Layer"/>
  <path class="fil0 str0" d="M8464.04 7042.35c2698.81,0 4886.63,2187.82 4886.63,4886.63 0,2698.81 -2187.82,4886.63 -4886.63,4886.63 -2698.81,0 -4886.63,-2187.82 -4886.63,-4886.63 0,-2698.81 2187.82,-4886.63 4886.63,-4886.63zm-0.02 333.12l0.04 0c238.9,0 434.35,195.44 434.35,434.34l0 520.05c0,238.9 -195.45,434.34 -434.35,434.34l-0.04 0c-238.9,0 -434.35,-195.44 -434.35,-434.34l0 -520.05c0,-238.9 195.45,-434.34 434.35,-434.34z"/>
 </g>
</svg>
