<?xml version="1.0" encoding="UTF-8"?>
<!DOCTYPE svg PUBLIC "-//W3C//DTD SVG 1.1//EN" "http://www.w3.org/Graphics/SVG/1.1/DTD/svg11.dtd">
<!-- Creator: CorelDRAW 2020 (64-Bit Оценочная версия) -->
<svg xmlns="http://www.w3.org/2000/svg" xml:space="preserve" width="210mm" height="297mm" version="1.1" style="shape-rendering:geometricPrecision; text-rendering:geometricPrecision; image-rendering:optimizeQuality; fill-rule:evenodd; clip-rule:evenodd"
viewBox="0 0 21000 29700"
 xmlns:xlink="http://www.w3.org/1999/xlink"
 xmlns:xodm="http://www.corel.com/coreldraw/odm/2003">
 <defs>
  <style type="text/css">
   <![CDATA[
    .fil0 {fill:#2B2A29}
   ]]>
  </style>
 </defs>
 <g id="Слой_x0020_1">
  <metadata id="CorelCorpID_0Corel-Layer"/>
  <path class="fil0" d="M7809.29 7406.11c-2203.55,319.34 -3896.17,2215.92 -3896.17,4507.99 0,2515.94 2039.4,4555.34 4555.34,4555.34 2515.94,0 4555.34,-2039.4 4555.34,-4555.34 0,-2292.07 -1692.62,-4188.65 -3896.17,-4507.99 67.63,114.06 106.49,247.04 106.49,388.82l0 520.05c0,421.75 -343.89,765.63 -765.64,765.63 -421.77,0 -765.68,-343.84 -765.68,-765.63l0 -520.05c0,-141.78 38.86,-274.76 106.49,-388.82zm-186.76 147.16c-2075.71,399.4 -3595.3,2226.42 -3595.3,4360.83 0,2452.96 1988.27,4441.23 4441.23,4441.23 2452.96,0 4441.23,-1988.27 4441.23,-4441.23 0,-2134.41 -1519.59,-3961.43 -3595.3,-4360.83 22.39,78.14 33.84,159.37 33.84,241.66l0 520.05c0,484.73 -395.02,879.74 -879.75,879.74 -484.75,0 -879.79,-394.97 -879.79,-879.74l0 -520.05c0,-82.29 11.45,-163.52 33.84,-241.66z"/>
 </g>
</svg>
